<svg id='Down_Button_24' width='24' height='24' viewBox='0 0 24 24' xmlns='http://www.w3.org/2000/svg' xmlns:xlink='http://www.w3.org/1999/xlink'><rect width='24' height='24' stroke='none' fill='#000000' opacity='0'/>


<g transform="matrix(0.42 0 0 0.42 12 12)" >
<g style="" >
<g transform="matrix(1 0 0 1 0 0)" >
<path style="stroke: none; stroke-width: 1; stroke-dasharray: none; stroke-linecap: butt; stroke-dashoffset: 0; stroke-linejoin: miter; stroke-miterlimit: 4; fill: rgb(156,39,176); fill-rule: nonzero; opacity: 1;" transform=" translate(-24, -24)" d="M 44 24 C 44 35.044 35.044 44 24 44 C 12.956000000000003 44 4 35.044 4 24 C 4 12.956000000000003 12.956 4 24 4 C 35.044 4 44 12.956 44 24 z" stroke-linecap="round" />
</g>
<g transform="matrix(1 0 0 1 0 2.05)" >
<path style="stroke: none; stroke-width: 1; stroke-dasharray: none; stroke-linecap: butt; stroke-dashoffset: 0; stroke-linejoin: miter; stroke-miterlimit: 4; fill: rgb(255,255,255); fill-rule: nonzero; opacity: 1;" transform=" translate(-24, -26.05)" d="M 35.102 22.102 L 32 19 L 23.898 27 L 16 19 L 12.898 22.102 L 23.898 33.102000000000004 L 35.102 22.102 z" stroke-linecap="round" />
</g>
</g>
</g>
</svg>